<?xml version="1.0" encoding="UTF-8"?>
<svg width="640px" height="128px" viewBox="0 0 640 128" version="1.1" xmlns="http://www.w3.org/2000/svg" xmlns:xlink="http://www.w3.org/1999/xlink">
    <title>logotype</title>
    <g id="logotype" stroke="none" stroke-width="1" fill="none" fill-rule="evenodd">
        <g id="logo" transform="translate(0, 35)" fill="#CA2207" fill-rule="nonzero">
            <path d="M64.5167243,19.4942008 C70.6189927,12.1100338 75.9584775,7.01495861 80.5351788,4.20897516 C85.11188,1.40299172 90.4513649,0 96.5536332,0 C105.214917,0 112.6213,2.83059733 118.77278,8.491792 C124.92426,14.1529867 128,21.0202619 128,29.0936178 C128,37.1669737 125.145713,43.8619517 119.43714,49.1785519 C113.728566,54.4951521 106.543637,57.1534522 97.8823529,57.1534522 C90.9926951,57.1534522 85.2103037,55.8489161 80.5351788,53.2398437 C75.8600538,50.6307714 70.4221453,45.6833796 64.2214533,38.3976682 C52.3121876,51.0984353 40.5505575,57.4488189 28.9365629,57.4488189 C21.2595156,57.4488189 14.5174933,54.4459243 8.71049596,48.4401352 C2.90349865,42.4343461 0,35.4932292 0,27.6167844 C0,20.4295286 3.14955786,14.079145 9.44867359,8.56563367 C15.7477893,3.05212234 22.98193,0.295366678 31.1510957,0.295366678 C37.3517878,0.295366678 42.8389081,1.67374451 47.6124567,4.43050017 C52.3860054,7.18725583 58.0207612,12.2084894 64.5167243,19.4942008 Z M70.5511811,29.3627297 C78.4436568,40.695713 87.5053881,46.3622047 97.7363751,46.3622047 C103.874967,46.3622047 108.941742,44.736168 112.936699,41.4840945 C116.931655,38.232021 118.929134,34.1422922 118.929134,29.2149081 C118.929134,24.5831671 116.785498,20.7398075 112.498228,17.6848294 C108.210957,14.6298513 102.851869,13.1023622 96.4209625,13.1023622 C91.5490639,13.1023622 87.3105122,14.2110236 83.7053072,16.4283465 C80.1001023,18.6456693 75.7153936,22.9571304 70.5511811,29.3627297 Z M57.4488189,28.7135953 C49.3414359,17.6341906 40.2453477,12.0944882 30.1605543,12.0944882 C24.1294523,12.0944882 18.9387498,13.7858133 14.5884467,17.1684634 C10.2381437,20.5511135 8.06299213,24.5465626 8.06299213,29.1548106 C8.06299213,33.7630586 10.0404026,37.7830196 13.9952236,41.2146937 C17.9500445,44.6463677 22.5475239,46.3622047 27.7876617,46.3622047 C37.9713257,46.3622047 47.8583781,40.4793349 57.4488189,28.7135953 Z" id="Shape"></path>
        </g>
        <g id="DEV-WALLET" transform="translate(157.976, 37.92)" fill="#CA2207" fill-rule="nonzero">
            <path d="M34.86,26.208 C34.86,22.904 34.384,20.062 33.432,17.682 C32.48,15.302 31.164,13.356 29.484,11.844 C27.804,10.332 25.844,9.212 23.604,8.484 C21.364,7.756 18.956,7.392 16.38,7.392 C13.412,7.392 10.948,7.588 8.988,7.98 L8.988,45.024 C10.108,45.304 11.354,45.486 12.726,45.57 C14.098,45.654 15.484,45.696 16.884,45.696 C22.708,45.696 27.16,44.058 30.24,40.782 C33.32,37.506 34.86,32.648 34.86,26.208 Z M44.1,26.124 C44.1,30.66 43.456,34.622 42.168,38.01 C40.88,41.398 39.046,44.212 36.666,46.452 C34.286,48.692 31.416,50.358 28.056,51.45 C24.696,52.542 20.972,53.088 16.884,53.088 C15.092,53.088 12.992,53.004 10.584,52.836 C8.176,52.668 5.936,52.248 3.864,51.576 C1.288,50.736 0,49.224 0,47.04 L0,4.956 C0,4.004 0.266,3.262 0.798,2.73 C1.33,2.198 2.072,1.792 3.024,1.512 C4.984,0.896 7.112,0.49 9.408,0.294 C11.704,0.098 13.944,0 16.128,0 C20.272,0 24.066,0.532 27.51,1.596 C30.954,2.66 33.908,4.284 36.372,6.468 C38.836,8.652 40.74,11.382 42.084,14.658 C43.428,17.934 44.1,21.756 44.1,26.124 Z" id="Shape"></path>
            <path d="M59.976,52.164 C58.52,52.164 57.344,51.716 56.448,50.82 C55.552,49.924 55.104,48.748 55.104,47.292 L55.104,5.88 C55.104,4.424 55.552,3.262 56.448,2.394 C57.344,1.526 58.52,1.092 59.976,1.092 L87.78,1.092 C88.06,1.428 88.298,1.904 88.494,2.52 C88.69,3.136 88.788,3.808 88.788,4.536 C88.788,5.768 88.494,6.72 87.906,7.392 C87.318,8.064 86.52,8.4 85.512,8.4 L64.008,8.4 L64.008,22.344 L85.26,22.344 C85.54,22.68 85.778,23.156 85.974,23.772 C86.17,24.388 86.268,25.06 86.268,25.788 C86.268,27.076 85.974,28.028 85.386,28.644 C84.798,29.26 84,29.568 82.992,29.568 L64.008,29.568 L64.008,44.856 L88.2,44.856 C88.424,45.192 88.648,45.668 88.872,46.284 C89.096,46.9 89.208,47.572 89.208,48.3 C89.208,49.588 88.914,50.554 88.326,51.198 C87.738,51.842 86.94,52.164 85.932,52.164 L59.976,52.164 Z" id="Path"></path>
            <path d="M124.236,51.156 C123.788,51.492 123.06,51.814 122.052,52.122 C121.044,52.43 119.924,52.584 118.692,52.584 C117.292,52.584 116.06,52.388 114.996,51.996 C113.932,51.604 113.204,51.016 112.812,50.232 C112.084,48.832 111.244,47.012 110.292,44.772 C109.34,42.532 108.332,40.04 107.268,37.296 C106.204,34.552 105.126,31.654 104.034,28.602 C102.942,25.55 101.864,22.512 100.8,19.488 C99.736,16.464 98.756,13.524 97.86,10.668 C96.964,7.812 96.18,5.208 95.508,2.856 C95.956,2.296 96.628,1.778 97.524,1.302 C98.42,0.826 99.4,0.588 100.464,0.588 C101.808,0.588 102.844,0.896 103.572,1.512 C104.3,2.128 104.888,3.136 105.336,4.536 C107.52,11.368 109.662,17.948 111.762,24.276 C113.862,30.604 116.144,37.072 118.608,43.68 L119.028,43.68 C120.092,40.656 121.212,37.422 122.388,33.978 C123.564,30.534 124.726,27.006 125.874,23.394 C127.022,19.782 128.128,16.128 129.192,12.432 C130.256,8.736 131.236,5.096 132.132,1.512 C133.252,0.896 134.596,0.588 136.164,0.588 C137.452,0.588 138.53,0.91 139.398,1.554 C140.266,2.198 140.7,3.164 140.7,4.452 C140.7,5.404 140.392,7.042 139.776,9.366 C139.16,11.69 138.348,14.378 137.34,17.43 C136.332,20.482 135.212,23.73 133.98,27.174 C132.748,30.618 131.53,33.908 130.326,37.044 C129.122,40.18 127.974,43.008 126.882,45.528 C125.79,48.048 124.908,49.924 124.236,51.156 Z" id="Path"></path>
            <path d="M190.008,13.692 C190.512,13.412 191.17,13.174 191.982,12.978 C192.794,12.782 193.676,12.684 194.628,12.684 C197.708,12.684 199.556,13.58 200.172,15.372 C201.068,18.228 201.922,20.888 202.734,23.352 C203.546,25.816 204.316,28.21 205.044,30.534 C205.772,32.858 206.486,35.14 207.186,37.38 C207.886,39.62 208.572,41.944 209.244,44.352 L209.664,44.352 C210.392,40.656 211.078,37.072 211.722,33.6 C212.366,30.128 213.01,26.656 213.654,23.184 C214.298,19.712 214.9,16.198 215.46,12.642 C216.02,9.086 216.58,5.376 217.14,1.512 C218.204,0.896 219.492,0.588 221.004,0.588 C222.348,0.588 223.454,0.882 224.322,1.47 C225.19,2.058 225.624,2.996 225.624,4.284 C225.624,5.404 225.47,7.07 225.162,9.282 C224.854,11.494 224.462,14.014 223.986,16.842 C223.51,19.67 222.936,22.68 222.264,25.872 C221.592,29.064 220.892,32.2 220.164,35.28 C219.436,38.36 218.694,41.258 217.938,43.974 C217.182,46.69 216.468,48.972 215.796,50.82 C215.18,51.268 214.326,51.646 213.234,51.954 C212.142,52.262 210.952,52.416 209.664,52.416 C208.04,52.416 206.668,52.178 205.548,51.702 C204.428,51.226 203.728,50.568 203.448,49.728 C202.944,48.384 202.342,46.718 201.642,44.73 C200.942,42.742 200.214,40.586 199.458,38.262 C198.702,35.938 197.946,33.488 197.19,30.912 C196.434,28.336 195.692,25.76 194.964,23.184 C194.292,25.704 193.564,28.294 192.78,30.954 C191.996,33.614 191.226,36.176 190.47,38.64 C189.714,41.104 188.986,43.4 188.286,45.528 C187.586,47.656 186.956,49.448 186.396,50.904 C185.836,51.296 185.038,51.646 184.002,51.954 C182.966,52.262 181.804,52.416 180.516,52.416 C178.892,52.416 177.506,52.164 176.358,51.66 C175.21,51.156 174.468,50.512 174.132,49.728 C173.628,48.608 173.068,46.984 172.452,44.856 C171.836,42.728 171.178,40.306 170.478,37.59 C169.778,34.874 169.064,31.962 168.336,28.854 C167.608,25.746 166.922,22.638 166.278,19.53 C165.634,16.422 165.032,13.412 164.472,10.5 C163.912,7.588 163.464,4.956 163.128,2.604 C163.632,2.1 164.318,1.638 165.186,1.218 C166.054,0.798 166.992,0.588 168,0.588 C170.632,0.588 172.2,1.904 172.704,4.536 C173.432,8.512 174.132,12.208 174.804,15.624 C175.476,19.04 176.12,22.33 176.736,25.494 C177.352,28.658 177.968,31.78 178.584,34.86 C179.2,37.94 179.872,41.104 180.6,44.352 L180.936,44.352 C181.664,41.888 182.35,39.578 182.994,37.422 C183.638,35.266 184.31,33.026 185.01,30.702 C185.71,28.378 186.466,25.858 187.278,23.142 C188.09,20.426 189,17.276 190.008,13.692 Z" id="Path"></path>
            <path d="M264.348,39.312 L243.852,39.312 L239.736,52.164 C239.232,52.388 238.7,52.556 238.14,52.668 C237.58,52.78 236.908,52.836 236.124,52.836 C234.724,52.836 233.576,52.528 232.68,51.912 C231.784,51.296 231.336,50.372 231.336,49.14 C231.336,48.524 231.42,47.922 231.588,47.334 C231.756,46.746 231.98,46.088 232.26,45.36 C232.988,43.008 234.01,39.97 235.326,36.246 C236.642,32.522 238.042,28.588 239.526,24.444 C241.01,20.3 242.508,16.226 244.02,12.222 C245.532,8.218 246.848,4.788 247.968,1.932 C248.528,1.596 249.396,1.274 250.572,0.966 C251.748,0.658 252.952,0.504 254.184,0.504 C255.808,0.504 257.264,0.728 258.552,1.176 C259.84,1.624 260.708,2.408 261.156,3.528 C262.388,6.72 263.732,10.346 265.188,14.406 C266.644,18.466 268.1,22.652 269.556,26.964 C271.012,31.276 272.412,35.504 273.756,39.648 C275.1,43.792 276.304,47.544 277.368,50.904 C276.864,51.464 276.206,51.926 275.394,52.29 C274.582,52.654 273.616,52.836 272.496,52.836 C270.984,52.836 269.892,52.542 269.22,51.954 C268.548,51.366 267.988,50.372 267.54,48.972 L264.348,39.312 Z M254.1,8.316 C253.54,9.828 252.924,11.536 252.252,13.44 C251.58,15.344 250.88,17.346 250.152,19.446 C249.424,21.546 248.696,23.674 247.968,25.83 C247.24,27.986 246.54,30.072 245.868,32.088 L262.416,32.088 C261.688,29.848 260.946,27.594 260.19,25.326 C259.434,23.058 258.706,20.888 258.006,18.816 C257.306,16.744 256.648,14.798 256.032,12.978 C255.416,11.158 254.912,9.604 254.52,8.316 L254.1,8.316 Z" id="Shape"></path>
            <path d="M291.312,52.164 C289.856,52.164 288.68,51.716 287.784,50.82 C286.888,49.924 286.44,48.748 286.44,47.292 L286.44,1.092 C286.888,0.98 287.49,0.854 288.246,0.714 C289.002,0.574 289.8,0.504 290.64,0.504 C292.264,0.504 293.482,0.812 294.294,1.428 C295.106,2.044 295.512,3.136 295.512,4.704 L295.512,44.604 L318.276,44.604 C318.556,44.996 318.808,45.5 319.032,46.116 C319.256,46.732 319.368,47.432 319.368,48.216 C319.368,49.504 319.06,50.484 318.444,51.156 C317.828,51.828 317.016,52.164 316.008,52.164 L291.312,52.164 Z" id="Path"></path>
            <path d="M333.648,52.164 C332.192,52.164 331.016,51.716 330.12,50.82 C329.224,49.924 328.776,48.748 328.776,47.292 L328.776,1.092 C329.224,0.98 329.826,0.854 330.582,0.714 C331.338,0.574 332.136,0.504 332.976,0.504 C334.6,0.504 335.818,0.812 336.63,1.428 C337.442,2.044 337.848,3.136 337.848,4.704 L337.848,44.604 L360.612,44.604 C360.892,44.996 361.144,45.5 361.368,46.116 C361.592,46.732 361.704,47.432 361.704,48.216 C361.704,49.504 361.396,50.484 360.78,51.156 C360.164,51.828 359.352,52.164 358.344,52.164 L333.648,52.164 Z" id="Path"></path>
            <path d="M375.984,52.164 C374.528,52.164 373.352,51.716 372.456,50.82 C371.56,49.924 371.112,48.748 371.112,47.292 L371.112,5.88 C371.112,4.424 371.56,3.262 372.456,2.394 C373.352,1.526 374.528,1.092 375.984,1.092 L403.788,1.092 C404.068,1.428 404.306,1.904 404.502,2.52 C404.698,3.136 404.796,3.808 404.796,4.536 C404.796,5.768 404.502,6.72 403.914,7.392 C403.326,8.064 402.528,8.4 401.52,8.4 L380.016,8.4 L380.016,22.344 L401.268,22.344 C401.548,22.68 401.786,23.156 401.982,23.772 C402.178,24.388 402.276,25.06 402.276,25.788 C402.276,27.076 401.982,28.028 401.394,28.644 C400.806,29.26 400.008,29.568 399,29.568 L380.016,29.568 L380.016,44.856 L404.208,44.856 C404.432,45.192 404.656,45.668 404.88,46.284 C405.104,46.9 405.216,47.572 405.216,48.3 C405.216,49.588 404.922,50.554 404.334,51.198 C403.746,51.842 402.948,52.164 401.94,52.164 L375.984,52.164 Z" id="Path"></path>
            <path d="M435.96,8.484 L435.96,51.912 C435.568,52.08 434.994,52.234 434.238,52.374 C433.482,52.514 432.684,52.584 431.844,52.584 C430.108,52.584 428.876,52.262 428.148,51.618 C427.42,50.974 427.056,49.896 427.056,48.384 L427.056,8.484 L412.188,8.484 C411.908,8.092 411.67,7.588 411.474,6.972 C411.278,6.356 411.18,5.656 411.18,4.872 C411.18,3.64 411.474,2.702 412.062,2.058 C412.65,1.414 413.448,1.092 414.456,1.092 L450.996,1.092 C451.22,1.428 451.43,1.904 451.626,2.52 C451.822,3.136 451.92,3.808 451.92,4.536 C451.92,7.168 450.828,8.484 448.644,8.484 L435.96,8.484 Z" id="Path"></path>
        </g>
    </g>
</svg>